<svg xmlns="http://www.w3.org/2000/svg" viewBox="-15 -15 259 259">
  <path fill-rule="evenodd" d="M207.88 114.27C208.06 116.14 208.19 118.01 208.28 119.88C208.39 121.74 208.44 123.61 208.44 125.47C208.45 127.33 208.42 129.18 208.34 131.03C208.25 132.88 208.13 134.72 207.96 136.56C207.8 138.39 207.59 140.21 207.33 142.03C207.08 143.84 206.78 145.64 206.43 147.42C206.09 149.21 205.71 150.99 205.28 152.75C204.86 154.51 204.38 156.26 203.87 157.98C203.36 159.71 202.81 161.41 202.2 163.1C201.6 164.79 200.97 166.47 200.29 168.12C199.61 169.76 198.89 171.39 198.14 172.99C197.38 174.59 196.58 176.17 195.74 177.73C194.9 179.28 194.03 180.81 193.12 182.31C192.21 183.81 191.26 185.29 190.28 186.73C189.3 188.18 188.28 189.6 187.23 190.98C186.18 192.36 185.1 193.72 183.99 195.03C182.87 196.36 181.72 197.65 180.55 198.9C179.38 200.16 178.16 201.38 176.93 202.56C175.71 203.75 174.44 204.9 173.15 206.01C171.87 207.12 170.55 208.2 169.22 209.24C167.88 210.28 166.52 211.28 165.14 212.24C163.76 213.2 162.35 214.13 160.93 215.01C159.5 215.89 158.06 216.72 156.6 217.52C155.14 218.32 153.66 219.08 152.17 219.8C150.67 220.52 149.16 221.18 147.64 221.81C146.11 222.45 144.57 223.03 143.03 223.57C141.47 224.11 139.91 224.61 138.34 225.06C136.77 225.52 135.18 225.93 133.6 226.3C132.01 226.66 130.41 226.98 128.81 227.26C127.2 227.53 125.59 227.76 123.98 227.94C122.37 228.13 120.75 228.26 119.13 228.35C117.52 228.45 115.89 228.49 114.27 228.49C112.65 228.49 111.03 228.45 109.41 228.35C107.79 228.26 106.17 228.13 104.56 227.94C102.95 227.76 101.34 227.53 99.74 227.26C98.14 226.98 96.53 226.66 94.94 226.3C93.36 225.93 91.77 225.52 90.2 225.06C88.64 224.61 87.07 224.11 85.52 223.57C83.97 223.03 82.43 222.45 80.9 221.81C79.38 221.18 77.87 220.52 76.38 219.8C74.88 219.08 73.4 218.32 71.94 217.52C70.48 216.72 69.04 215.89 67.61 215.01C66.19 214.13 64.78 213.2 63.4 212.24C62.02 211.28 60.66 210.28 59.32 209.24C57.99 208.2 56.68 207.12 55.39 206.01C54.1 204.9 52.84 203.75 51.61 202.56C50.38 201.38 49.17 200.16 47.99 198.9C46.82 197.65 45.67 196.36 44.56 195.03C43.44 193.72 42.36 192.36 41.31 190.98C40.26 189.6 39.24 188.18 38.26 186.73C37.28 185.29 36.33 183.81 35.42 182.31C34.51 180.81 33.64 179.28 32.8 177.73C31.97 176.17 31.16 174.59 30.4 172.99C29.65 171.39 28.93 169.76 28.25 168.12C27.57 166.47 26.94 164.79 26.34 163.1C25.74 161.41 25.19 159.71 24.67 157.98C24.16 156.26 23.68 154.51 23.26 152.75C22.83 150.99 22.45 149.21 22.11 147.42C21.76 145.64 21.47 143.84 21.21 142.03C20.95 140.21 20.74 138.39 20.58 136.56C20.41 134.72 20.29 132.88 20.21 131.03C20.12 129.18 20.09 127.33 20.1 125.47C20.1 123.61 20.16 121.74 20.26 119.88C20.35 118.01 20.48 116.14 20.66 114.27C20.84 112.4 21.06 110.53 21.32 108.67C21.58 106.8 21.88 104.93 22.23 103.07C22.57 101.22 22.96 99.36 23.37 97.51C23.79 95.66 24.25 93.82 24.74 91.99C25.24 90.15 25.78 88.33 26.35 86.51C26.92 84.7 27.52 82.91 28.16 81.12C28.8 79.33 29.46 77.55 30.17 75.79C30.87 74.03 31.61 72.28 32.38 70.56C33.14 68.84 33.94 67.13 34.76 65.44C35.58 63.75 36.44 62.07 37.31 60.43C38.19 58.78 39.1 57.15 40.02 55.55C40.95 53.95 41.9 52.37 42.87 50.81C43.84 49.26 44.84 47.73 45.85 46.23C46.86 44.73 47.9 43.25 48.95 41.81C49.99 40.37 51.07 38.95 52.16 37.56C53.24 36.18 54.34 34.82 55.45 33.51C56.56 32.18 57.7 30.89 58.84 29.64C59.98 28.38 61.13 27.16 62.3 25.98C63.46 24.79 64.63 23.64 65.81 22.53C67 21.42 68.19 20.34 69.39 19.3C70.59 18.27 71.8 17.26 73.01 16.3C74.22 15.34 75.45 14.41 76.67 13.53C77.89 12.66 79.13 11.82 80.36 11.02C81.6 10.22 82.83 9.46 84.08 8.74C85.32 8.03 86.56 7.36 87.82 6.73C89.07 6.1 90.31 5.51 91.57 4.97C92.82 4.43 94.08 3.93 95.34 3.48C96.6 3.02 97.86 2.61 99.12 2.24C100.37 1.88 101.64 1.56 102.9 1.28C104.16 1.01 105.43 0.79 106.69 0.6C107.95 0.41 109.22 0.28 110.48 0.19C111.74 0.1 113.01 0.05 114.27 0.05C115.53 0.05 116.8 0.1 118.06 0.19C119.32 0.28 120.59 0.41 121.85 0.6C123.11 0.79 124.38 1.01 125.64 1.28C126.91 1.56 128.17 1.88 129.42 2.24C130.69 2.61 131.95 3.02 133.2 3.48C134.46 3.93 135.72 4.43 136.97 4.97C138.23 5.51 139.48 6.1 140.72 6.73C141.98 7.36 143.22 8.03 144.46 8.74C145.71 9.46 146.94 10.22 148.18 11.02C149.42 11.82 150.65 12.66 151.87 13.53C153.1 14.41 154.32 15.34 155.53 16.3C156.74 17.26 157.96 18.27 159.15 19.3C160.35 20.34 161.55 21.42 162.73 22.53C163.91 23.64 165.08 24.79 166.25 25.98C167.41 27.16 168.56 28.38 169.7 29.64C170.84 30.89 171.98 32.18 173.09 33.51C174.2 34.82 175.3 36.18 176.38 37.56C177.48 38.95 178.55 40.37 179.6 41.81C180.65 43.25 181.68 44.73 182.69 46.23C183.7 47.73 184.7 49.26 185.67 50.81C186.64 52.37 187.59 53.95 188.52 55.55C189.45 57.15 190.35 58.78 191.23 60.43C192.1 62.07 192.96 63.75 193.78 65.44C194.61 67.13 195.4 68.84 196.17 70.56C196.93 72.28 197.67 74.03 198.37 75.79C199.08 77.55 199.74 79.33 200.38 81.12C201.02 82.91 201.62 84.7 202.2 86.51C202.77 88.33 203.3 90.15 203.8 91.99C204.29 93.82 204.75 95.66 205.17 97.51C205.59 99.36 205.97 101.22 206.31 103.07C206.66 104.93 206.96 106.8 207.22 108.67C207.49 110.53 207.7 112.4 207.88 114.27Z" fill="#000"/>
</svg>
