<svg xmlns="http://www.w3.org/2000/svg" viewBox="-15 -15 259 259">
  <path fill-rule="evenodd" d="M228.11 115.24C228.26 117.02 228.36 118.81 228.42 120.6C228.49 122.4 228.51 124.19 228.48 126C228.46 127.8 228.39 129.6 228.27 131.41C228.16 133.22 228 135.02 227.78 136.83C227.58 138.64 227.32 140.45 227.01 142.24C226.71 144.04 226.34 145.84 225.93 147.62C225.53 149.41 225.07 151.19 224.56 152.95C224.05 154.72 223.49 156.47 222.87 158.21C222.26 159.95 221.59 161.67 220.87 163.38C220.15 165.08 219.38 166.77 218.56 168.43C217.72 170.09 216.85 171.73 215.92 173.34C214.99 174.95 214.01 176.53 212.98 178.08C211.95 179.63 210.87 181.15 209.73 182.63C208.61 184.12 207.43 185.57 206.2 186.98C204.98 188.38 203.71 189.75 202.39 191.08C201.08 192.41 199.72 193.69 198.33 194.93C196.93 196.17 195.49 197.36 194.02 198.51C192.55 199.65 191.04 200.75 189.5 201.8C187.96 202.84 186.38 203.84 184.78 204.78C183.18 205.73 181.54 206.62 179.9 207.46C178.24 208.31 176.56 209.1 174.86 209.84C173.17 210.57 171.45 211.25 169.73 211.89C167.99 212.52 166.25 213.1 164.5 213.63C162.74 214.15 160.98 214.63 159.2 215.06C157.43 215.48 155.65 215.86 153.87 216.18C152.08 216.52 150.3 216.79 148.52 217.03C146.74 217.26 144.95 217.45 143.17 217.59C141.4 217.75 139.62 217.85 137.85 217.91C136.09 217.97 134.32 217.99 132.56 217.98C130.81 217.96 129.06 217.91 127.33 217.82C125.58 217.74 123.85 217.61 122.14 217.46C120.42 217.31 118.71 217.12 117.01 216.91C115.32 216.7 113.63 216.46 111.96 216.18C110.27 215.92 108.61 215.63 106.95 215.31C105.3 215 103.65 214.65 102.02 214.29C100.38 213.92 98.76 213.53 97.15 213.13C95.52 212.72 93.92 212.3 92.32 211.85C90.72 211.4 89.13 210.94 87.54 210.45C85.96 209.96 84.38 209.45 82.8 208.93C81.24 208.4 79.67 207.85 78.11 207.29C76.55 206.72 75 206.13 73.44 205.52C71.89 204.92 70.35 204.29 68.8 203.63C67.26 202.98 65.73 202.3 64.2 201.6C62.66 200.9 61.14 200.16 59.63 199.41C58.11 198.66 56.59 197.88 55.09 197.07C53.58 196.26 52.09 195.42 50.59 194.55C49.1 193.69 47.62 192.78 46.16 191.85C44.7 190.92 43.23 189.95 41.79 188.96C40.35 187.95 38.92 186.92 37.52 185.85C36.11 184.78 34.72 183.67 33.35 182.53C31.99 181.39 30.64 180.2 29.32 178.98C28 177.76 26.7 176.5 25.44 175.2C24.17 173.91 22.93 172.57 21.73 171.2C20.54 169.83 19.37 168.42 18.25 166.97C17.12 165.53 16.04 164.05 14.99 162.52C13.96 161.01 12.95 159.45 12.01 157.86C11.05 156.28 10.15 154.66 9.3 153.01C8.46 151.36 7.65 149.68 6.91 147.97C6.17 146.26 5.48 144.53 4.85 142.77C4.22 141.01 3.64 139.24 3.14 137.44C2.63 135.64 2.18 133.82 1.8 131.99C1.41 130.16 1.09 128.3 0.83 126.46C0.57 124.6 0.38 122.73 0.24 120.86C0.12 119 0.05 117.12 0.05 115.24C0.05 113.36 0.12 111.48 0.24 109.62C0.38 107.75 0.57 105.88 0.82 104.02C1.08 102.18 1.39 100.32 1.78 98.49C2.15 96.65 2.59 94.84 3.09 93.03C3.58 91.23 4.14 89.45 4.75 87.68C5.36 85.92 6.02 84.18 6.74 82.46C7.45 80.74 8.22 79.04 9.03 77.38C9.86 75.71 10.72 74.08 11.63 72.46C12.54 70.85 13.49 69.27 14.49 67.72C15.48 66.17 16.52 64.65 17.58 63.15C18.66 61.67 19.76 60.21 20.91 58.79C22.05 57.37 23.23 55.98 24.43 54.62C25.63 53.26 26.87 51.94 28.13 50.64C29.39 49.35 30.68 48.09 31.99 46.86C33.31 45.63 34.64 44.44 36 43.28C37.35 42.11 38.73 40.98 40.12 39.89C41.52 38.79 42.93 37.72 44.36 36.68C45.79 35.64 47.24 34.64 48.71 33.66C50.17 32.69 51.64 31.75 53.13 30.83C54.62 29.92 56.14 29.03 57.65 28.17C59.17 27.32 60.7 26.49 62.25 25.7C63.79 24.89 65.34 24.12 66.92 23.38C68.48 22.64 70.06 21.93 71.66 21.25C73.24 20.57 74.84 19.92 76.46 19.29C78.07 18.67 79.7 18.08 81.33 17.51C82.97 16.96 84.62 16.43 86.27 15.93C87.93 15.42 89.59 14.96 91.27 14.52C92.94 14.09 94.63 13.69 96.32 13.32C98.02 12.96 99.73 12.62 101.43 12.32C103.15 12.02 104.86 11.76 106.59 11.54C108.31 11.31 110.05 11.12 111.78 10.98C113.52 10.82 115.27 10.71 117.01 10.64C118.76 10.58 120.51 10.55 122.26 10.56C124.01 10.57 125.76 10.63 127.52 10.72C129.27 10.82 131.02 10.97 132.77 11.15C134.51 11.33 136.26 11.57 138.01 11.83C139.74 12.1 141.48 12.43 143.2 12.78C144.93 13.15 146.64 13.56 148.35 14.01C150.05 14.46 151.75 14.96 153.42 15.49C155.11 16.04 156.77 16.63 158.43 17.26C160.07 17.89 161.71 18.56 163.32 19.28C164.94 19.99 166.54 20.75 168.11 21.55C169.68 22.36 171.24 23.21 172.76 24.09C174.29 24.98 175.8 25.9 177.27 26.85C178.75 27.82 180.2 28.82 181.62 29.86C183.06 30.89 184.46 31.97 185.82 33.08C187.19 34.18 188.53 35.33 189.84 36.5C191.15 37.67 192.43 38.88 193.67 40.11C194.92 41.35 196.14 42.62 197.32 43.91C198.51 45.21 199.65 46.53 200.78 47.87C201.9 49.22 202.98 50.59 204.04 51.99C205.09 53.38 206.12 54.8 207.1 56.24C208.1 57.68 209.05 59.15 209.98 60.64C210.9 62.12 211.79 63.62 212.65 65.14C213.51 66.67 214.33 68.21 215.12 69.76C215.92 71.33 216.68 72.9 217.4 74.49C218.13 76.08 218.82 77.69 219.48 79.31C220.14 80.93 220.76 82.57 221.35 84.22C221.95 85.87 222.49 87.54 223.02 89.22C223.54 90.9 224.03 92.59 224.48 94.29C224.93 95.99 225.35 97.71 225.72 99.43C226.11 101.16 226.45 102.91 226.76 104.65C227.06 106.4 227.33 108.15 227.55 109.92C227.77 111.69 227.97 113.46 228.11 115.24Z" fill="#000"/>
</svg>
